<?xml version="1.0" encoding="utf-8"?>
<!-- Generator: Adobe Illustrator 18.1.1, SVG Export Plug-In . SVG Version: 6.00 Build 0)  -->
<svg version="1.1" xmlns="http://www.w3.org/2000/svg" xmlns:xlink="http://www.w3.org/1999/xlink" x="0px" y="0px"
	 viewBox="0 0 432 216" enable-background="new 0 0 432 216" xml:space="preserve">
<g id="Layer_1">
</g>
<g id="_x23_1_Text">
	<g>
		<path fill="#FFFFFF" d="M33.291,140.437c-3.722,0-6.75-3.028-6.75-6.751V66.123c0-3.722,3.028-6.75,6.75-6.75H378.7
			c3.722,0,6.75,3.028,6.75,6.75v67.563c0,3.723-3.028,6.751-6.75,6.751H33.291z"/>
		<path fill="#8DC641" d="M378.7,60.723c2.978,0,5.4,2.422,5.4,5.4v67.563c0,2.978-2.422,5.4-5.4,5.4H33.291
			c-2.978,0-5.4-2.422-5.4-5.4V66.123c0-2.978,2.422-5.4,5.4-5.4H378.7 M378.7,58.023H33.291c-4.474,0-8.1,3.628-8.1,8.1v67.563
			c0,4.475,3.626,8.1,8.1,8.1H378.7c4.475,0,8.1-3.625,8.1-8.1V66.123C386.8,61.651,383.175,58.023,378.7,58.023L378.7,58.023z"/>
	</g>
	<rect x="40.673" y="74.829" fill="none" width="365.398" height="24.3"/>
	<text transform="matrix(1 0 0 1 40.6743 88.3616)" fill="#010101" font-family="'Arial-BoldMT'" font-size="18.9">THIRD PARTY TESTED / CERTIFIED</text>
	<rect x="40.673" y="97.03" fill="none" width="365.398" height="60.139"/>
	<text transform="matrix(1 0 0 1 40.6743 108.6282)" fill="#010101" font-family="'ArialMT'" font-size="16.2">Peace of Mind Performance</text>
</g>
</svg>
